<svg width="399" height="67" viewBox="0 0 399 67" fill="none" xmlns="http://www.w3.org/2000/svg">
<path d="M64.4601 24.722C62.0058 26.9304 60.0588 29.6352 58.7507 32.6536C57.4427 35.6719 56.8042 38.9334 56.8784 42.2175C56.7633 48.1314 58.8382 53.8824 62.7112 58.3838C67.6332 64.1335 74.5889 67.0052 83.5783 66.9986C92.5677 66.992 99.5234 63.9793 104.445 57.9604C108.122 53.5261 110.097 47.9459 110.02 42.2076C110.099 38.9344 109.474 35.682 108.185 32.6669C106.897 29.6519 104.975 26.9435 102.547 24.722C97.5592 20.0552 91.0705 17.8597 83.0814 18.1354C75.715 17.8597 69.5079 20.0552 64.4601 24.722ZM90.1365 22.2705C92.0443 23.5405 93.6044 25.7262 94.8365 28.8177C96.0687 31.9092 96.6848 36.576 96.6848 42.8082C96.8216 47.1261 96.2099 51.4353 94.8763 55.5483C93.9818 58.3834 92.213 60.8694 89.8185 62.6567C87.938 63.8731 85.7231 64.4819 83.4789 64.3994C81.7948 64.4775 80.1167 64.1512 78.5873 63.4484C77.0578 62.7456 75.7225 61.687 74.6948 60.3627C71.6741 56.5098 70.1637 50.5664 70.1637 42.5325C70.1637 35.7654 71.1574 30.5735 73.1447 26.9569C75.5295 22.5593 79.0074 20.3605 83.5783 20.3605C85.9196 20.3157 88.2186 20.9822 90.1663 22.2705M136.094 65.9648C138.463 66.0238 140.833 65.8822 143.179 65.5415C146.148 65.0694 149.041 64.212 151.784 62.9915C154.105 61.9117 156.212 60.4277 158.004 58.6102C159.91 56.6208 161.403 54.279 162.396 51.7184C163.552 48.7998 164.129 45.6875 164.095 42.5522C164.167 38.0222 162.97 33.5612 160.637 29.6644C158.284 25.8125 154.73 22.8234 150.512 21.1481C146.875 19.6122 142.069 18.8475 136.094 18.8541H113.706V20.134H115.356C116.509 20.078 117.657 20.3116 118.695 20.8133C119.402 21.153 119.98 21.7086 120.344 22.3985C120.708 23.876 120.842 25.3999 120.742 26.9176V57.862C120.835 59.3304 120.725 60.8046 120.414 62.2432C120.036 62.9886 119.436 63.6005 118.695 63.9957C117.654 64.4834 116.505 64.7035 115.356 64.6357H113.706V65.9648H136.094ZM141.589 22.5462C144.251 23.7152 146.426 25.7557 147.749 28.3255C149.737 31.9355 150.73 36.7663 150.73 42.818C150.73 50.3203 149.257 55.8568 146.309 59.4274C144.142 62.0529 141.006 63.3656 136.899 63.3656C135.913 63.4161 134.93 63.2374 134.027 62.8438C133.591 62.6393 133.24 62.2914 133.033 61.8592C132.767 60.6874 132.67 59.4841 132.745 58.2853V21.473C136.849 21.473 139.79 21.7979 141.559 22.5068M205.661 18.795V20.0749C207.896 20.1931 209.436 20.5377 210.271 21.1186C210.555 21.2669 210.796 21.4852 210.97 21.7525C211.144 22.0198 211.246 22.3271 211.265 22.6446C211.265 23.7768 210.152 26.0905 207.916 29.5365L198.914 43.7534L189.871 28.1384C187.884 24.7778 186.89 22.6807 186.89 21.8471C186.922 21.585 187.017 21.3344 187.167 21.1166C187.318 20.8989 187.519 20.7205 187.755 20.5967C188.697 20.1238 189.753 19.9193 190.805 20.006H191.868V18.7261H167.911V20.006C169.275 19.9629 170.618 20.3489 171.747 21.1087C172.74 21.8077 174.36 24.1608 176.715 28.1384L188.48 48.3414V57.793C188.588 59.2657 188.45 60.746 188.073 62.1743C187.775 62.8829 187.242 63.4698 186.562 63.8382C185.476 64.3774 184.268 64.6284 183.055 64.5668H180.461V65.9648H208.532V64.6357H205.73C204.625 64.6865 203.526 64.4525 202.54 63.9563C201.85 63.621 201.286 63.076 200.931 62.4007C200.56 60.9176 200.422 59.3866 200.523 57.862V46.4609L211.374 29.3986C214.024 25.0535 215.965 22.3985 217.197 21.4336C218.32 20.6511 219.634 20.1818 221.003 20.0749V18.795H205.661Z" fill="#0B25AE"/>
<path d="M256.894 53.3428C256.029 55.5487 254.67 57.5314 252.92 59.1418C251.108 60.6629 248.806 61.4907 246.431 61.4752C244.828 61.4975 243.247 61.1062 241.843 60.3398C240.438 59.5734 239.26 58.4582 238.422 57.1038C236.419 54.128 235.379 50.618 235.441 47.0417C235.28 43.7804 236.342 40.5754 238.422 38.0429C239.155 37.1955 240.072 36.5232 241.105 36.0766C242.137 35.6299 243.258 35.4203 244.384 35.4634C245.662 35.3925 246.926 35.7611 247.961 36.507C248.409 36.9036 248.773 37.3849 249.03 37.9225C249.288 38.4601 249.435 39.0433 249.462 39.6379C249.467 40.6219 249.753 41.5844 250.286 42.4143C250.693 42.8703 251.201 43.2267 251.77 43.4556C252.339 43.6845 252.953 43.7796 253.566 43.7336C254.483 43.7904 255.388 43.5021 256.099 42.9263C256.397 42.6538 256.631 42.3211 256.787 41.9507C256.943 41.5804 257.017 41.1811 257.004 40.78C257.004 38.9947 255.934 37.275 253.794 35.6209C251.429 33.8957 248.541 33.0206 245.606 33.1399C243.486 33.1111 241.382 33.5119 239.424 34.3178C237.466 35.1237 235.694 36.3176 234.219 37.8263C232.632 39.4326 231.393 41.3431 230.578 43.4408C229.763 45.5384 229.389 47.7789 229.479 50.0249C229.479 55.1971 230.907 59.2994 233.762 62.3318C234.908 63.6619 236.312 64.75 237.891 65.5313C239.47 66.3125 241.191 66.771 242.953 66.8794C244.714 66.9878 246.48 66.7439 248.145 66.1622C249.809 65.5805 251.338 64.673 252.641 63.4935C255.453 60.948 257.328 57.5455 257.967 53.8253L256.894 53.3428ZM272.793 16.501L262.727 20.3899L263.353 21.6108C264.125 21.2825 264.949 21.0924 265.788 21.0496C266.309 21.032 266.821 21.1918 267.238 21.5025C267.699 21.9554 267.993 22.5482 268.073 23.1861C268.312 25.3863 268.399 27.6002 268.331 29.8121V58.7283C268.418 60.0784 268.256 61.4328 267.855 62.7256C267.589 63.3561 267.121 63.8822 266.523 64.2221C265.511 64.5944 264.43 64.7488 263.353 64.675V65.9648H279.908V64.675C278.692 64.7634 277.471 64.5887 276.331 64.163C275.705 63.8406 275.205 63.321 274.91 62.6862C274.522 61.4108 274.368 60.0772 274.452 58.748V16.501H272.793ZM289.755 17.4855C289.407 17.799 289.13 18.1825 288.943 18.6103C288.757 19.0381 288.664 19.5005 288.672 19.9666C288.66 20.4442 288.752 20.9188 288.941 21.3585C289.129 21.7982 289.41 22.1931 289.765 22.5166C290.476 23.196 291.43 23.5678 292.418 23.5504C292.906 23.5599 293.39 23.4734 293.844 23.2959C294.298 23.1185 294.712 22.8536 295.061 22.5166C295.408 22.1959 295.684 21.8069 295.87 21.3746C296.057 20.9422 296.15 20.4761 296.144 20.006C296.152 19.5399 296.06 19.0775 295.873 18.6497C295.686 18.2219 295.409 17.8384 295.061 17.5249C294.708 17.1963 294.292 16.9401 293.839 16.7712C293.385 16.6022 292.902 16.5238 292.418 16.5404C291.929 16.522 291.441 16.5995 290.982 16.7685C290.524 16.9375 290.103 17.1945 289.745 17.5249M293.859 33.1497L283.674 37.0387L284.19 38.2891C284.994 37.9794 285.843 37.8031 286.704 37.7673C287.243 37.7391 287.775 37.8917 288.215 38.2005C288.648 38.6148 288.934 39.1572 289.03 39.7462C289.32 41.9721 289.43 44.2175 289.358 46.4608V58.7283C289.446 60.0798 289.277 61.4357 288.861 62.7256C288.588 63.3549 288.118 63.8799 287.519 64.2221C286.454 64.6009 285.32 64.7551 284.19 64.675V65.9648H300.606V64.675C299.483 64.7547 298.356 64.5865 297.307 64.1827C296.7 63.8535 296.222 63.334 295.946 62.7059C295.553 61.4315 295.395 60.0976 295.479 58.7677V33.1694L293.859 33.1497ZM314.676 33.1497H313.086L302.911 37.0387L303.468 38.2891C304.253 37.9774 305.087 37.801 305.932 37.7673C306.479 37.7403 307.019 37.9001 307.462 38.2201C307.929 38.679 308.229 39.2778 308.317 39.9234C308.575 42.2442 308.668 44.58 308.595 46.9137V58.7283C308.595 61.042 308.287 62.6665 307.691 63.4345C307.095 64.2024 305.922 64.675 304.203 64.675H303.468V65.9648H320.171V64.675C318.929 64.766 317.682 64.6052 316.505 64.2024C315.886 63.8708 315.388 63.3539 315.084 62.7256C314.712 61.4272 314.574 60.0741 314.676 58.7283V41.991C317.578 38.9783 320.493 37.4719 323.421 37.4719C324.211 37.4017 325.005 37.5483 325.716 37.8957C326.428 38.243 327.029 38.7776 327.455 39.441C328.256 40.7537 328.657 42.8574 328.657 45.752V58.7283C328.707 59.8297 328.66 60.9332 328.518 62.0266C328.318 62.8085 327.86 63.5017 327.216 63.9957C326.204 64.5379 325.054 64.7741 323.907 64.675H323.212V65.9648H339.915V64.675C338.78 64.7556 337.64 64.5876 336.577 64.1827C336.004 63.8878 335.547 63.4136 335.275 62.8339C334.838 61.511 334.663 60.117 334.758 58.7283V45.1415C334.856 42.978 334.58 40.8138 333.943 38.742C333.35 37.0205 332.232 35.524 330.744 34.4592C329.322 33.5681 327.666 33.1158 325.984 33.1596C322.387 33.1596 318.611 35.4076 314.656 39.9037L314.676 33.1497ZM348.501 17.5249C348.149 17.8366 347.869 18.2193 347.678 18.6472C347.488 19.0751 347.392 19.5384 347.398 20.006C347.393 20.4777 347.489 20.9452 347.679 21.3778C347.869 21.8103 348.149 22.1984 348.501 22.5166C349.212 23.196 350.166 23.5678 351.154 23.5504C351.642 23.5599 352.126 23.4734 352.58 23.2959C353.034 23.1185 353.447 22.8536 353.797 22.5166C354.144 22.1959 354.42 21.8069 354.606 21.3746C354.793 20.9422 354.886 20.4761 354.88 20.006C354.888 19.5399 354.795 19.0775 354.609 18.6497C354.422 18.2219 354.145 17.8384 353.797 17.5249C353.444 17.1963 353.028 16.9401 352.575 16.7712C352.121 16.6022 351.638 16.5238 351.154 16.5404C350.665 16.522 350.177 16.5995 349.718 16.7685C349.26 16.9375 348.839 17.1945 348.481 17.5249M352.595 33.1497L342.429 37.0387L342.946 38.2891C343.749 37.9794 344.599 37.8031 345.46 37.7673C345.998 37.7391 346.531 37.8917 346.971 38.2005C347.407 38.6121 347.694 39.1558 347.785 39.7462C348.076 41.9721 348.186 44.2175 348.113 46.4608V58.7283C348.201 60.0798 348.033 61.4357 347.616 62.7256C347.347 63.3568 346.876 63.8827 346.275 64.2221C345.209 64.6009 344.075 64.7551 342.946 64.675V65.9648H359.322V64.675C358.199 64.7537 357.072 64.5856 356.023 64.1827C355.418 63.8512 354.94 63.3324 354.662 62.7059C354.269 61.4315 354.111 60.0976 354.194 58.7677V33.1694L352.595 33.1497ZM362.203 35.3748C363.519 35.3331 364.819 35.6755 365.94 36.3594C367.592 37.6978 369.02 39.286 370.173 41.0655L376.582 49.828L369.507 58.6889C368.118 60.566 366.533 62.292 364.777 63.8381C364.089 64.311 363.294 64.6086 362.462 64.7045V65.9648H373.492V64.675C372.601 64.6971 371.726 64.4348 370.997 63.9267C370.753 63.7525 370.552 63.5254 370.409 63.2627C370.266 63.0001 370.185 62.7087 370.173 62.4105C370.173 62.0167 371.007 60.7663 372.677 58.6594L378.102 51.8463L383.071 58.6594C384.641 60.8156 385.435 62.1546 385.435 62.6862C385.439 62.9429 385.375 63.1962 385.252 63.4219C385.128 63.6477 384.949 63.8384 384.73 63.976C383.969 64.4832 383.062 64.7288 382.146 64.675V65.9648H398.045V64.675C396.835 64.6479 395.654 64.3085 394.617 63.6905C393.736 63.1194 392.259 61.4326 390.185 58.6299L381.809 47.2583L386.419 41.4495C387.821 39.512 389.494 37.7816 391.388 36.3101C392.332 35.721 393.413 35.382 394.528 35.3256V34.085H383.061V35.3748C383.761 35.3238 384.458 35.5 385.048 35.8769C385.242 36.0196 385.399 36.2051 385.508 36.4188C385.617 36.6325 385.674 36.8683 385.674 37.1076C385.674 37.7049 384.79 39.1522 383.021 41.4495L380.258 45.0726L377.854 41.4495C377.317 40.6717 376.91 40.0908 376.641 39.7167C375.982 38.9931 375.535 38.1044 375.35 37.147C375.342 36.9 375.392 36.6545 375.497 36.4304C375.603 36.2064 375.76 36.01 375.956 35.8572C376.594 35.474 377.34 35.3048 378.082 35.3748V34.085H362.184L362.203 35.3748Z" fill="#1BA337"/>
<path d="M23.3123 30.521V30.6982C23.203 38.102 16.3566 36.5366 16.3566 36.5366C17.2604 37.011 18.2132 37.3873 19.1985 37.659C19.1985 37.659 26.4324 40.4157 29.1948 40.6126C29.1948 40.6126 21.1163 42.6605 16.1479 45.4172C11.346 48.294 7.38888 52.3675 4.67104 57.2318C3.1674 60.2264 2.04586 63.3947 1.33231 66.6638H0.835478L2.47503 41.2821C2.5758 39.9437 2.83596 38.6218 3.2501 37.3439C4.00386 34.9951 4.95447 32.7129 6.09199 30.521H0.606934V66.9493H28.7974C30.8271 66.8915 32.8367 66.5331 34.7594 65.886C41.0791 63.7496 49.6644 57.2811 49.416 48.3906C49.1576 39.7265 40.6816 34.6069 39.3203 33.7306C36.1427 31.7971 32.5224 30.6928 28.7974 30.521H23.3123Z" fill="#0B25AE"/>
<path d="M0.606934 0V35.4438H3.90592C5.51498 30.9413 7.93947 26.7674 11.0603 23.1271C19.0097 15.1325 23.8588 15.0045 23.8588 15.0045C20.3909 17.5644 16.1181 22.9597 14.568 24.9977C14.0534 25.6512 13.6352 26.3739 13.3259 27.144C12.6012 28.6875 12.4877 30.4444 13.0079 32.0668C12.7995 31.0231 12.9136 29.9413 13.3356 28.9629C13.7575 27.9845 14.4675 27.155 15.3729 26.5828C16.2058 26.0428 17.1796 25.7551 18.175 25.7551C19.1704 25.7551 20.1442 26.0428 20.9772 26.5828C21.6917 27.0254 22.281 27.6407 22.6895 28.3709C23.098 29.1012 23.3123 29.9224 23.3123 30.7573C23.3123 33.1596 22.5273 34.6266 21.5336 35.493H28.7974C30.8225 35.4545 32.8311 35.1228 34.7594 34.5085C41.0791 32.4212 49.6644 26.1201 49.416 17.4364C49.1278 8.86095 40.6518 3.85944 39.2905 3.0521C36.2848 1.29035 32.9068 0.245451 29.4234 0L0.606934 0Z" fill="#1BA337"/>
</svg>
